
        <svg xmlns="http://www.w3.org/2000/svg" xmlns:xlink="http://www.w3.org/1999/xlink" version="1.1" width="3300" 
        height="2305.6440975894193" viewBox="0 0 3300 2305.6440975894193">
			
			<g transform="scale(15) translate(10, 10)">
				<defs id="SvgjsDefs3874"></defs><g id="SvgjsG3875" featureKey="HKaMnE-0" transform="matrix(1.2830713520489672,0,0,1.2830713520489672,35.84643729208042,-19.282064645369854)" fill="#ec729c"><g xmlns="http://www.w3.org/2000/svg" display="none"><g display="inline"><g><path d="M29.634,62.419c-0.025,0-0.085-0.001-0.111-0.003l-0.64,0.002c-1.698,0-3.078-1.381-3.078-3.079V34.357     c0-1.698,1.38-3.079,3.078-3.079h35.001c1.694,0,3.073,1.453,3.073,3.151v24.909c0,1.698-1.379,3.079-3.076,3.079H48.132     c-0.813-0.014-2.414-0.516-2.777-2.331c-0.795-2.949-3.543-5.059-6.667-5.059c-3.197,0-6.034,2.266-6.744,5.386     C31.776,61.767,30.659,62.419,29.634,62.419z M28.881,33.621c-0.444,0-0.807,0.29-0.807,0.736v24.981     c0,0.446,0.363,0.809,0.809,0.809l0.748,0.001c0.004-0.036,0.092-0.203,0.099-0.237c0.944-4.144,4.711-7.151,8.958-7.151     c4.149,0,7.799,2.8,8.876,6.809c0.112,0.547,0.508,0.579,0.586,0.579h15.73c0.444,0,0.807-0.362,0.807-0.809V34.43     c0-0.446-0.362-0.809-0.807-0.809H28.881z"></path></g></g><g display="inline"><circle cx="38.688" cy="61.952" r="4.909"></circle></g><g display="inline"><circle cx="79.069" cy="61.952" r="4.908"></circle></g><g display="inline"><path d="M89.09,48.85c0,0-0.07-1.559-0.215-2.324c-0.121-0.65-0.81-1.97-0.81-1.97L82.627,34.43    c-0.71-1.133-2.322-2.017-3.396-2.017H71.1c-1.072,0-1.943,0.87-1.943,1.944v24.981c0,1.074,0.871,1.945,1.943,1.945h0.479    c0,0,0.706-0.092,0.971-0.977c0.734-2.93,3.363-5.113,6.519-5.113c3.088,0,5.672,2.091,6.469,4.927    c0.33,1.201,1.662,1.163,1.662,1.163c1.074,0,1.943-0.871,1.943-1.945L89.09,48.85z M83.547,45.591h-8.516    c-0.718,0-1.303-0.588-1.303-1.302v-6.665c0-0.718,0.585-1.302,1.303-1.302h2.856c1.626,0,2.694,1.315,3.031,1.948l3.314,6.174    C84.572,45.074,84.265,45.591,83.547,45.591z"></path></g><path display="inline" d="M18.542,35.289h-8.531c-0.548,0-0.993-0.444-0.993-0.993c0-0.548,0.445-0.993,0.993-0.993h8.531   c0.548,0,0.993,0.445,0.993,0.993C19.535,34.845,19.09,35.289,18.542,35.289z"></path><path display="inline" d="M20.98,41.383h-5.282c-0.549,0-0.993-0.444-0.993-0.993c0-0.548,0.444-0.993,0.993-0.993h5.282   c0.548,0,0.993,0.445,0.993,0.993C21.974,40.938,21.529,41.383,20.98,41.383z"></path><path display="inline" d="M89.99,68.722H13.337c-0.548,0-0.993-0.444-0.993-0.994c0-0.549,0.445-0.994,0.993-0.994H89.99   c0.548,0,0.992,0.445,0.992,0.994C90.982,68.277,90.538,68.722,89.99,68.722z"></path></g><g xmlns="http://www.w3.org/2000/svg" display="none"><g display="inline"><g><g><path d="M57.699,72.905H15.39c-1.252,0-2.431-0.488-3.321-1.379c-0.889-0.891-1.379-2.068-1.377-3.319L10.69,25.899      c0.002-2.187,1.247-3.165,2.481-3.165c0.805,0,1.603,0.389,2.37,1.158l44.162,44.165c1.435,1.431,1.233,2.648,0.987,3.247      C60.441,71.901,59.726,72.905,57.699,72.905z M13.742,26.41l0.002,41.797c0,0.436,0.172,0.85,0.484,1.162      c0.313,0.312,0.725,0.483,1.163,0.483h41.794L13.742,26.41z M34.922,62.066l-11.037-0.002c-1.295,0-2.354-1.055-2.354-2.352      V48.676c0-1.27,0.914-1.955,1.774-1.955c0.358,0,0.894,0.108,1.416,0.632l11.521,11.519c0.604,0.602,0.792,1.38,0.503,2.078      C36.458,61.648,35.775,62.066,34.922,62.066z M24.584,59.012h7.482l-7.482-7.48V59.012z"></path></g></g></g><g display="inline"><g><g><path d="M20.117,35.819c-0.146,0-0.293-0.056-0.405-0.167c-0.224-0.223-0.224-0.586-0.001-0.81l2.466-2.466      c0.224-0.223,0.585-0.223,0.809-0.001c0.224,0.224,0.224,0.586,0,0.81l-2.463,2.466C20.411,35.763,20.263,35.819,20.117,35.819z      "></path></g></g><g><g><path d="M23.996,39.697c-0.146,0-0.292-0.056-0.404-0.167c-0.224-0.224-0.224-0.586-0.002-0.81l2.465-2.466      c0.224-0.224,0.586-0.222,0.81-0.001c0.224,0.224,0.224,0.586,0,0.81l-2.462,2.466C24.29,39.641,24.141,39.697,23.996,39.697z"></path></g></g><g><g><path d="M27.874,43.576c-0.146,0-0.294-0.056-0.406-0.167c-0.224-0.225-0.224-0.586,0-0.81l2.465-2.467      c0.223-0.224,0.586-0.222,0.81-0.001c0.223,0.224,0.223,0.585,0,0.81l-2.465,2.466C28.167,43.52,28.02,43.576,27.874,43.576z"></path></g></g><g><g><path d="M31.751,47.452c-0.147,0-0.292-0.056-0.404-0.168c-0.223-0.223-0.223-0.586,0-0.809l2.466-2.465      c0.224-0.222,0.585-0.222,0.809,0c0.224,0.225,0.224,0.587,0,0.81l-2.466,2.465C32.043,47.396,31.899,47.452,31.751,47.452z"></path></g></g><g><g><path d="M35.63,51.332c-0.147,0-0.293-0.057-0.405-0.168c-0.224-0.224-0.224-0.585,0-0.81l2.465-2.465      c0.224-0.224,0.585-0.224,0.809,0c0.224,0.223,0.224,0.588,0,0.81l-2.464,2.464C35.923,51.275,35.777,51.332,35.63,51.332z"></path></g></g><g><g><path d="M39.508,55.21c-0.147,0-0.292-0.056-0.405-0.168c-0.224-0.224-0.224-0.587,0-0.811l2.466-2.466      c0.224-0.221,0.584-0.222,0.809,0c0.224,0.225,0.224,0.588,0,0.812l-2.467,2.464C39.8,55.154,39.654,55.21,39.508,55.21z"></path></g></g><g><g><path d="M43.386,59.087c-0.146,0-0.293-0.056-0.404-0.168c-0.223-0.224-0.223-0.586,0-0.812l2.467-2.463      c0.224-0.221,0.585-0.221,0.808,0c0.224,0.226,0.224,0.586,0,0.811L43.79,58.92C43.678,59.031,43.533,59.087,43.386,59.087z"></path></g></g><g><g><path d="M47.264,62.966c-0.147,0-0.292-0.058-0.403-0.167c-0.224-0.224-0.224-0.587,0-0.812l2.466-2.463      c0.224-0.224,0.585-0.224,0.809,0s0.224,0.585,0,0.81L47.669,62.8C47.557,62.908,47.412,62.966,47.264,62.966z"></path></g></g><g><g><path d="M51.144,66.843c-0.147,0-0.292-0.056-0.403-0.168c-0.224-0.224-0.224-0.585,0-0.809l2.467-2.465      c0.224-0.222,0.583-0.222,0.807,0.002s0.224,0.584,0,0.809l-2.465,2.465C51.436,66.787,51.291,66.843,51.144,66.843z"></path></g></g></g><g display="inline"><path d="M87.533,28.777L22.878,11.939c-2.538-0.623-5.112,0.934-5.736,3.473L16.506,18l2.514,2.554l1.086-4.414    c0.221-0.905,1.14-1.46,2.043-1.236l64.657,16.836c0.905,0.222,1.46,1.139,1.237,2.044l-12.58,51.154    c-0.224,0.905-1.14,1.462-2.046,1.238l-31.632-8.239l-10.703,0.369l41.608,10.835c2.538,0.622,5.113-0.936,5.736-3.473    l12.578-51.156C91.632,31.974,90.07,29.402,87.533,28.777z"></path></g><g display="inline"><path d="M78.055,40.416c-0.083,0-0.164-0.01-0.25-0.032l-51.51-13.831c-0.507-0.137-0.809-0.66-0.672-1.169    c0.137-0.507,0.661-0.807,1.167-0.673L78.3,38.542c0.511,0.137,0.812,0.659,0.675,1.169    C78.858,40.136,78.476,40.416,78.055,40.416z"></path></g><g display="inline"><path d="M68.355,65.058c-0.079,0-0.156-0.01-0.235-0.03c-0.511-0.128-0.82-0.647-0.689-1.159l7.232-28.614    c0.126-0.511,0.638-0.821,1.159-0.691c0.511,0.13,0.82,0.648,0.689,1.158l-7.232,28.618C69.17,64.771,68.781,65.058,68.355,65.058    z"></path></g></g><g xmlns="http://www.w3.org/2000/svg"><g><g><path d="M48.339,81.834c-7.47,0-37.308-23.342-37.308-43.759c0-10.095,4.875-18.386,12.722-21.636     c7.731-3.199,16.816-0.876,24.586,6.208c7.771-7.085,16.851-9.411,24.587-6.208c7.848,3.25,12.723,11.541,12.723,21.636     c0,1.837-0.24,3.763-0.711,5.721c-0.236,0.982-1.227,1.582-2.205,1.35c-0.98-0.236-1.584-1.223-1.348-2.204     c0.404-1.679,0.605-3.315,0.605-4.867c0-8.589-4.01-15.585-10.463-18.258c-6.746-2.797-14.934-0.309-21.896,6.649     c-0.683,0.686-1.9,0.686-2.583,0c-6.96-6.959-15.148-9.443-21.897-6.649c-6.453,2.673-10.463,9.669-10.463,18.258     c0,18.91,28.81,40.103,33.651,40.103c1.01,0,1.827,0.819,1.827,1.828S49.349,81.834,48.339,81.834z"></path></g><g><path d="M87.131,62.594h-8.277V54.32c0-1.016-0.824-1.841-1.84-1.841h-8.582c-1.018,0-1.84,0.825-1.84,1.841v8.273h-8.275     c-1.018,0-1.838,0.825-1.838,1.841v8.583c0,1.016,0.82,1.841,1.838,1.841h8.275v8.274c0,1.016,0.822,1.839,1.84,1.839h8.582     c1.016,0,1.84-0.823,1.84-1.839v-8.274h8.277c1.014,0,1.838-0.825,1.838-1.841v-8.583C88.969,63.419,88.145,62.594,87.131,62.594     z"></path></g></g></g></g><g id="SvgjsG3876" featureKey="J3GnXt-0" transform="matrix(1.5316282781918953,0,0,1.5316282781918953,-2.787562998893393,102.5256538271426)" fill="#111111"><path d="M3.74 5.84 l0 5.88 l7.34 0 l0 -5.88 l1.92 0 l0 14.16 l-1.92 0 l0 -6.48 l-7.34 0 l0 6.48 l-1.92 0 l0 -14.16 l1.92 0 z M20.52 10.28 c1.4533 0 2.5834 0.45664 3.39 1.37 s1.2167 2.17 1.23 3.77 l0 0.5 l-7.6 0 c0 0.77334 0.31 1.4233 0.93 1.95 s1.3767 0.79666 2.27 0.81 c0.98666 0 1.8533 -0.47334 2.6 -1.42 l1.36 1.04 c-1.0133 1.2933 -2.4134 1.94 -4.2 1.94 c-1.4533 0 -2.6234 -0.46334 -3.51 -1.39 s-1.3433 -2.1234 -1.37 -3.59 c0 -1.4133 0.45666 -2.59 1.37 -3.53 s2.09 -1.4233 3.53 -1.45 z M23.22 14.48 c-0.02666 -0.89334 -0.28 -1.5767 -0.76 -2.05 s-1.14 -0.71 -1.98 -0.71 c-0.56 0 -1.0633 0.13666 -1.51 0.41 s-0.79666 0.62668 -1.05 1.06 s-0.38 0.86334 -0.38 1.29 l5.68 0 z M31.1 10.28 c1.2 0 2.15 0.27328 2.85 0.81994 s1.07 1.3067 1.11 2.28 l0 5.08 c0 0.48 0.02666 0.99334 0.08 1.54 l-1.6 0 c-0.04 -0.42666 -0.06 -0.90666 -0.06 -1.44 l-0.04 0 c-0.41334 0.61334 -0.89 1.0467 -1.43 1.3 s-1.17 0.38 -1.89 0.38 c-0.97334 0 -1.7633 -0.26 -2.37 -0.78 s-0.91 -1.2067 -0.91 -2.06 c0 -1.08 0.45334 -1.8967 1.36 -2.45 s2.1866 -0.83 3.84 -0.83 l1.34 0 l0 -0.34 c0 -0.64 -0.21 -1.1433 -0.63 -1.51 s-0.97 -0.55 -1.65 -0.55 c-0.50666 0 -0.95 0.07666 -1.33 0.23 s-0.83 0.43668 -1.35 0.85002 l-1.08 -1.12 c1.0267 -0.90666 2.28 -1.3733 3.76 -1.4 z M28.64 17.259999999999998 c0 1.0267 0.68002 1.54 2.04 1.54 c0.81334 0 1.4633 -0.24334 1.95 -0.73 s0.73666 -1.19 0.75 -2.11 l0 -0.52 l-1.02 0 c-1.1733 0 -2.0866 0.15 -2.74 0.45 s-0.98 0.75666 -0.98 1.37 z M42.36 10.28 c0.33334 0 0.6 0.04 0.8 0.12 l-0.08 1.94 c-0.34666 -0.09334 -0.64666 -0.14 -0.9 -0.14 c-1.7733 0 -2.6734 0.98666 -2.7 2.96 l0 4.84 l-1.8 0 l0 -9.48 l1.8 0 l0 1.46 l0.04 0 c0.24 -0.50666 0.62666 -0.91666 1.16 -1.23 s1.0933 -0.47 1.68 -0.47 z M47.58 7.859999999999999 l-0.000019531 2.66 l2.58 0 l0 1.56 l-2.58 0 l0 4.56 c0 0.61334 0.08666 1.0867 0.26 1.42 s0.54 0.5 1.1 0.5 c0.53334 0 0.96 -0.09334 1.28 -0.28 l0 1.64 c-0.34666 0.18666 -0.89332 0.29332 -1.64 0.31998 c-0.72 0 -1.2767 -0.11 -1.67 -0.33 s-0.68 -0.52666 -0.86 -0.92 s-0.27 -1.01 -0.27 -1.85 l0 -5.06 l-2.08 0 l0 -1.56 l2.08 0 l0 -2.66 l1.8 0 z M59.459999999999994 5.48 c2.36 0 4.1134 0.6133 5.26 1.84 l-1.36 1.46 c-1.0533 -1 -2.36 -1.5 -3.92 -1.5 s-2.84 0.53666 -3.84 1.61 s-1.5 2.4166 -1.5 4.03 c0 1.6267 0.53 2.9734 1.59 4.04 s2.3634 1.6 3.91 1.6 c1.4667 0 2.6266 -0.24666 3.48 -0.74 l0 -3.94 l-3.14 0 l0 -1.8 l5.06 0 l0 6.98 c-0.69334 0.41334 -1.53 0.73334 -2.51 0.96 s-1.93 0.34 -2.85 0.34 c-2.2266 0 -4.0466 -0.69334 -5.46 -2.08 s-2.12 -3.1734 -2.12 -5.36 c0 -2.1066 0.69666 -3.8734 2.09 -5.3 s3.1634 -2.14 5.31 -2.14 z M69.83999999999999 10.52 l0 5.68 c0 0.74666 0.19666 1.3267 0.59 1.74 s0.91668 0.62 1.57 0.62 c0.84 0 1.49 -0.27666 1.95 -0.83 s0.69 -1.3033 0.69 -2.25 l0 -4.96 l1.8 0 l0 9.48 l-1.8 0 l0 -1.46 l-0.04 0 c-0.25334 0.53334 -0.66668 0.95 -1.24 1.25 s-1.2 0.45 -1.88 0.45 c-1.0533 0 -1.89 -0.32666 -2.51 -0.98 s-0.93 -1.5067 -0.93 -2.56 l0 -6.18 l1.8 0 z M82.96 10.28 c1.2 0 2.15 0.27328 2.85 0.81994 s1.07 1.3067 1.11 2.28 l0 5.08 c0 0.48 0.02666 0.99334 0.08 1.54 l-1.6 0 c-0.04 -0.42666 -0.06 -0.90666 -0.06 -1.44 l-0.04 0 c-0.41334 0.61334 -0.89 1.0467 -1.43 1.3 s-1.17 0.38 -1.89 0.38 c-0.97334 0 -1.7633 -0.26 -2.37 -0.78 s-0.91 -1.2067 -0.91 -2.06 c0 -1.08 0.45334 -1.8967 1.36 -2.45 s2.1866 -0.83 3.84 -0.83 l1.34 0 l0 -0.34 c0 -0.64 -0.21 -1.1433 -0.63 -1.51 s-0.97 -0.55 -1.65 -0.55 c-0.50666 0 -0.95 0.07666 -1.33 0.23 s-0.83 0.43668 -1.35 0.85002 l-1.08 -1.12 c1.0267 -0.90666 2.28 -1.3733 3.76 -1.4 z M80.5 17.259999999999998 c0 1.0267 0.68002 1.54 2.04 1.54 c0.81334 0 1.4633 -0.24334 1.95 -0.73 s0.73666 -1.19 0.75 -2.11 l0 -0.52 l-1.02 0 c-1.1733 0 -2.0866 0.15 -2.74 0.45 s-0.98 0.75666 -0.98 1.37 z M94.22 10.28 c0.33334 0 0.6 0.04 0.8 0.12 l-0.08 1.94 c-0.34666 -0.09334 -0.64666 -0.14 -0.9 -0.14 c-1.7733 0 -2.6734 0.98666 -2.7 2.96 l0 4.84 l-1.8 0 l0 -9.48 l1.8 0 l0 1.46 l0.04 0 c0.24 -0.50666 0.62666 -0.91666 1.16 -1.23 s1.0933 -0.47 1.68 -0.47 z M106.08 4.880000000000001 l-0.000019531 15.12 l-1.8 0 l0 -1.36 l-0.04 0 c-0.34666 0.50666 -0.81666 0.9 -1.41 1.18 s-1.2233 0.42 -1.89 0.42 c-1.4267 -0.01334 -2.5834 -0.48668 -3.47 -1.42 s-1.3367 -2.12 -1.35 -3.56 c0 -1.4533 0.44334 -2.64 1.33 -3.56 s2.05 -1.3933 3.49 -1.42 c0.65334 0 1.28 0.14 1.88 0.42 s1.0733 0.67334 1.42 1.18 l0.04 0 l0 -7 l1.8 0 z M98.03999999999999 15.26 c0 0.97334 0.28666 1.7633 0.86 2.37 s1.3267 0.91666 2.26 0.93 c0.94666 0 1.7033 -0.30334 2.27 -0.91 s0.85 -1.4033 0.85 -2.39 c0 -0.97334 -0.28 -1.7633 -0.84 -2.37 s-1.3267 -0.91666 -2.3 -0.93 c-0.93334 0 -1.6833 0.30666 -2.25 0.92 s-0.85 1.4067 -0.85 2.38 z M109.86 5.800000000000001 c0.36 0 0.67002 0.13002 0.93002 0.39002 s0.39 0.57 0.39 0.93 c0 0.37334 -0.13334 0.68668 -0.4 0.94002 s-0.57332 0.38 -0.91998 0.38 c-0.37334 0 -0.68668 -0.12666 -0.94002 -0.38 s-0.38 -0.56668 -0.38 -0.94002 s0.13334 -0.68668 0.4 -0.94002 s0.57332 -0.38 0.91998 -0.38 z M110.75999999999999 10.52 l0 9.48 l-1.8 0 l0 -9.48 l1.8 0 z M117.41999999999999 10.28 c1.2 0 2.15 0.27328 2.85 0.81994 s1.07 1.3067 1.11 2.28 l0 5.08 c0 0.48 0.02666 0.99334 0.08 1.54 l-1.6 0 c-0.04 -0.42666 -0.06 -0.90666 -0.06 -1.44 l-0.04 0 c-0.41334 0.61334 -0.89 1.0467 -1.43 1.3 s-1.17 0.38 -1.89 0.38 c-0.97334 0 -1.7633 -0.26 -2.37 -0.78 s-0.91 -1.2067 -0.91 -2.06 c0 -1.08 0.45334 -1.8967 1.36 -2.45 s2.1866 -0.83 3.84 -0.83 l1.34 0 l0 -0.34 c0 -0.64 -0.21 -1.1433 -0.63 -1.51 s-0.97 -0.55 -1.65 -0.55 c-0.50666 0 -0.95 0.07666 -1.33 0.23 s-0.83 0.43668 -1.35 0.85002 l-1.08 -1.12 c1.0267 -0.90666 2.28 -1.3733 3.76 -1.4 z M114.96 17.259999999999998 c0 1.0267 0.68002 1.54 2.04 1.54 c0.81334 0 1.4633 -0.24334 1.95 -0.73 s0.73666 -1.19 0.75 -2.11 l0 -0.52 l-1.02 0 c-1.1733 0 -2.0866 0.15 -2.74 0.45 s-0.98 0.75666 -0.98 1.37 z M128.95999999999998 10.28 c1.0667 0 1.9033 0.32 2.51 0.96 s0.91666 1.5 0.93 2.58 l0 6.18 l-1.8 0 l0 -5.66 c0 -0.73334 -0.19 -1.3133 -0.57 -1.74 s-0.91 -0.64 -1.59 -0.64 c-0.84 0 -1.49 0.28 -1.95 0.84 s-0.69 1.3067 -0.69 2.24 l0 4.96 l-1.8 0 l0 -9.48 l1.8 0 l0 1.46 l0.04 0 c0.25334 -0.53334 0.66334 -0.95 1.23 -1.25 s1.1967 -0.45 1.89 -0.45 z"></path></g>
			</g>
		</svg>
	